# xmcd
# Track frame offsets:
# 150
# 18285
# 30858
# 49468
# 64933
# 86263
# 109465
# 125073
# 139523
# 153480
# 179033
# 191290
# 205188
# 223560
# 232588
#
# Disc length: 3376 seconds
# Revision: 0
# Processed by: cddbd v1.4PL0 Copyright (c) Steve Scherf et al.
# Submitted via: VisiTrax 2.9.5.180 - For more info visit www.synapsa.com
#
DISCID=ca0d2e0f
DTITLE=Autumn Leaves - Together we´re Strong...The Austin Sessions
DYEAR=1993
DGENRE=
TTITLE0=Building Bridges
TTITLE1=The Light Of You Love
TTITLE2=Right On
TTITLE3=Keepin It Cool
TTITLE4=Vera Cruz
TTITLE5=The Eye Of A Hurricane
TTITLE6=Lies And Alibis
TTITLE7=Ten Minutes Romance
TTITLE8=Rhythem Of The Road
TTITLE9=Together We´re Strong
TTITLE10=Swing Across Texas
TTITLE11=Steppin` Out On Me
TTITLE12=Thank You For The Time
TTITLE13=Blue Water
TTITLE14=Don´t It Make Ya Wanna Dance
EXTD=
EXTT0=
EXTT1=
EXTT2=
EXTT3=
EXTT4=
EXTT5=
EXTT6=
EXTT7=
EXTT8=
EXTT9=
EXTT10=
EXTT11=
EXTT12=
EXTT13=
EXTT14=
PLAYORDER=
